<svg width="34" height="34" viewBox="0 0 34 34" fill="none" xmlns="http://www.w3.org/2000/svg">
<path d="M33.6591 16.7563C33.6591 25.9344 26.1611 33.376 16.9103 33.376C7.65948 33.376 0.161523 25.9344 0.161523 16.7563C0.161523 7.57824 7.65948 0.136621 16.9103 0.136621C26.1611 0.136621 33.6591 7.57824 33.6591 16.7563Z" fill="white" stroke="#00263D" stroke-width="0.2"/>
<path fill-rule="evenodd" clip-rule="evenodd" d="M16.9105 8.70486C14.1058 8.70486 11.8322 10.9785 11.8322 13.7832C11.8322 16.5879 14.1058 18.8615 16.9105 18.8615C19.7152 18.8615 21.9888 16.5879 21.9888 13.7832C21.9888 10.9785 19.7152 8.70486 16.9105 8.70486ZM10.3813 13.7832C10.3813 10.1772 13.3045 7.25391 16.9105 7.25391C20.5165 7.25391 23.4398 10.1772 23.4398 13.7832C23.4398 17.3892 20.5165 20.3124 16.9105 20.3124C13.3045 20.3124 10.3813 17.3892 10.3813 13.7832Z" fill="#00263D"/>
<path fill-rule="evenodd" clip-rule="evenodd" d="M16.9106 20.3116C15.255 20.3116 13.6285 20.7474 12.1947 21.5753C10.7609 22.4032 9.57028 23.594 8.74258 25.0279C8.54228 25.3749 8.0986 25.4938 7.75159 25.2935C7.40458 25.0932 7.28565 24.6495 7.48595 24.3025C8.44099 22.648 9.81476 21.2741 11.4692 20.3188C13.1235 19.3635 15.0003 18.8606 16.9106 18.8606C18.821 18.8606 20.6977 19.3635 22.3521 20.3188C24.0065 21.2741 25.3803 22.648 26.3353 24.3025C26.5356 24.6495 26.4167 25.0932 26.0697 25.2935C25.7227 25.4938 25.279 25.3749 25.0787 25.0279C24.251 23.594 23.0604 22.4032 21.6266 21.5753C20.1928 20.7474 18.5663 20.3116 16.9106 20.3116Z" fill="#00263D"/>
</svg>
